<svg width="1440" height="714" viewBox="0 0 1440 714" fill="none" xmlns="http://www.w3.org/2000/svg">
<g clip-path="url(#clip0_308_164)">
<rect width="1440" height="714" fill="white"/>
<g filter="url(#filter0_i_308_164)">
<rect width="1440" height="714" fill="url(#paint0_linear_308_164)"/>
</g>
<g filter="url(#filter1_b_308_164)">
<rect width="1440" height="714" fill="#FDFDFF" fill-opacity="0.03"/>
</g>
<path d="M281.039 426.647L381.656 492.608C382.948 493.457 383.852 494.783 384.168 496.297C384.485 497.81 384.19 499.388 383.346 500.683L309.276 614.289C308.832 614.969 308.251 615.549 307.569 615.99C306.888 616.431 306.121 616.725 305.32 616.852C304.518 616.979 303.698 616.936 302.913 616.727C302.129 616.518 301.396 616.146 300.764 615.637L194.9 530.619C194.13 530.002 193.216 529.59 192.245 529.422C191.273 529.254 190.274 529.335 189.342 529.658C188.41 529.98 187.575 530.534 186.916 531.268C186.256 532.001 185.793 532.89 185.569 533.851L153.753 670.45C153.571 671.252 153.222 672.006 152.727 672.662C152.232 673.318 151.604 673.861 150.883 674.255C150.163 674.649 149.367 674.886 148.548 674.949C147.729 675.012 146.906 674.9 146.133 674.621L21.2749 630.009C20.54 629.746 19.8651 629.338 19.2903 628.81C18.7154 628.281 18.2523 627.643 17.9282 626.932C17.604 626.221 17.4256 625.453 17.4033 624.672C17.3811 623.892 17.5154 623.115 17.7986 622.387L58.9807 517.179C59.3158 516.32 59.443 515.394 59.3521 514.477C59.2611 513.56 58.9544 512.677 58.4572 511.9C57.9599 511.124 57.2862 510.476 56.4912 510.01C55.6961 509.544 54.8022 509.273 53.8827 509.219L-51.4922 503.111C-52.2696 503.065 -53.0299 502.863 -53.7284 502.518C-54.4269 502.173 -55.0494 501.692 -55.5594 501.102C-56.0693 500.513 -56.4563 499.828 -56.6975 499.086C-56.9387 498.345 -57.0294 497.563 -56.9641 496.787L-46.229 370.21C-46.1617 369.413 -45.9317 368.638 -45.553 367.934C-45.1743 367.23 -44.6551 366.611 -44.0276 366.116C-43.4 365.621 -42.6775 365.26 -41.9048 365.056C-41.1321 364.852 -40.3257 364.809 -39.5356 364.93L48.4409 378.291C49.4323 378.442 50.4456 378.333 51.3824 377.976C52.3193 377.619 53.1479 377.026 53.7877 376.254C54.4277 375.481 54.8571 374.557 55.0345 373.569C55.2119 372.582 55.1312 371.565 54.8002 370.617L16.6648 260.495C16.1495 259.044 16.2275 257.448 16.8818 256.054C17.5362 254.661 18.7139 253.583 20.1589 253.055L146.991 206.899C147.739 206.631 148.534 206.518 149.327 206.569C150.12 206.62 150.894 206.833 151.602 207.195C152.309 207.557 152.936 208.061 153.442 208.674C153.948 209.287 154.323 209.998 154.544 210.762L188.361 330.19C188.662 331.249 189.255 332.201 190.073 332.937C190.891 333.674 191.9 334.164 192.984 334.352C194.068 334.539 195.182 334.416 196.199 333.997C197.216 333.578 198.094 332.88 198.731 331.984L255.866 251.197C256.355 250.499 256.99 249.916 257.728 249.489C258.466 249.063 259.288 248.803 260.136 248.729C260.985 248.654 261.84 248.767 262.641 249.059C263.442 249.35 264.17 249.814 264.773 250.416L358.044 345.399C358.607 345.976 359.044 346.663 359.328 347.418C359.611 348.173 359.735 348.978 359.692 349.783C359.648 350.587 359.438 351.374 359.075 352.094C358.712 352.813 358.203 353.448 357.581 353.96L280.541 417.261C279.836 417.842 279.277 418.58 278.909 419.417C278.541 420.254 278.375 421.165 278.423 422.078C278.472 422.991 278.734 423.881 279.188 424.674C279.642 425.468 280.276 426.143 281.039 426.647Z" fill="white" fill-opacity="0.15"/>
<path d="M1142.77 782.899L1200.67 876.078C1201.41 877.276 1201.65 878.72 1201.33 880.094C1201.01 881.467 1200.16 882.658 1198.96 883.405L1094.09 948.933C1093.46 949.324 1092.76 949.58 1092.03 949.684C1091.29 949.787 1090.55 949.736 1089.83 949.533C1089.12 949.33 1088.46 948.98 1087.89 948.506C1087.32 948.032 1086.86 947.443 1086.53 946.779L1031.61 835.824C1031.21 835.018 1030.62 834.327 1029.88 833.814C1029.14 833.302 1028.28 832.986 1027.39 832.895C1026.49 832.804 1025.59 832.942 1024.76 833.295C1023.93 833.648 1023.21 834.206 1022.65 834.915L943.902 935.679C943.444 936.272 942.866 936.761 942.205 937.114C941.544 937.467 940.816 937.675 940.068 937.724C939.321 937.774 938.572 937.664 937.87 937.402C937.169 937.139 936.531 936.731 935.999 936.203L849.858 851.375C849.351 850.875 848.949 850.279 848.677 849.621C848.404 848.963 848.266 848.258 848.271 847.545C848.276 846.833 848.423 846.129 848.704 845.475C848.986 844.821 849.395 844.23 849.909 843.736L924.357 772.531C924.964 771.949 925.424 771.232 925.701 770.439C925.978 769.645 926.064 768.797 925.95 767.964C925.837 767.131 925.528 766.337 925.05 765.646C924.571 764.955 923.936 764.388 923.196 763.99L838.388 718.487C837.763 718.15 837.211 717.691 836.766 717.138C836.321 716.585 835.991 715.947 835.795 715.264C835.6 714.581 835.543 713.866 835.628 713.16C835.713 712.454 835.938 711.773 836.29 711.156L893.76 610.588C894.121 609.955 894.609 609.402 895.192 608.965C895.776 608.528 896.443 608.216 897.152 608.047C897.861 607.879 898.597 607.858 899.314 607.986C900.032 608.114 900.715 608.388 901.322 608.791L968.956 653.614C969.719 654.119 970.598 654.418 971.51 654.483C972.422 654.547 973.335 654.374 974.161 653.981C974.986 653.588 975.697 652.989 976.222 652.24C976.748 651.491 977.072 650.619 977.162 649.709L987.895 543.99C988.026 542.591 988.703 541.301 989.779 540.4C990.855 539.499 992.243 539.06 993.641 539.177L1116.26 549.692C1116.98 549.757 1117.68 549.969 1118.32 550.316C1118.95 550.662 1119.51 551.136 1119.96 551.707C1120.41 552.278 1120.73 552.935 1120.91 553.636C1121.1 554.338 1121.13 555.07 1121.02 555.786L1103.15 667.543C1102.99 668.535 1103.11 669.55 1103.51 670.473C1103.9 671.396 1104.55 672.189 1105.37 672.76C1106.2 673.332 1107.17 673.658 1108.17 673.702C1109.17 673.746 1110.16 673.505 1111.03 673.008L1189.3 628.125C1189.97 627.735 1190.72 627.497 1191.5 627.427C1192.27 627.358 1193.05 627.459 1193.78 627.723C1194.51 627.987 1195.18 628.408 1195.73 628.957C1196.28 629.506 1196.7 630.168 1196.97 630.898L1237.65 745.261C1237.89 745.955 1237.99 746.691 1237.93 747.424C1237.88 748.157 1237.67 748.87 1237.33 749.519C1236.98 750.168 1236.51 750.739 1235.93 751.194C1235.35 751.649 1234.69 751.98 1233.98 752.165L1145.96 774.945C1145.15 775.154 1144.41 775.551 1143.78 776.101C1143.16 776.652 1142.67 777.342 1142.36 778.116C1142.05 778.89 1141.92 779.725 1142 780.556C1142.07 781.387 1142.33 782.189 1142.77 782.899Z" fill="white" fill-opacity="0.15"/>
<path d="M1061.26 87.5735L1100.12 150.118C1100.62 150.922 1100.78 151.891 1100.57 152.813C1100.35 153.735 1099.78 154.535 1098.98 155.036L1028.59 199.02C1028.17 199.283 1027.69 199.455 1027.2 199.524C1026.71 199.593 1026.21 199.559 1025.73 199.423C1025.25 199.287 1024.81 199.052 1024.43 198.733C1024.05 198.415 1023.74 198.02 1023.52 197.574L986.651 123.099C986.383 122.557 985.982 122.093 985.486 121.75C984.989 121.406 984.414 121.193 983.814 121.132C983.213 121.072 982.607 121.164 982.052 121.401C981.496 121.638 981.01 122.012 980.638 122.488L927.778 190.124C927.47 190.522 927.082 190.85 926.638 191.087C926.195 191.324 925.706 191.463 925.204 191.496C924.703 191.53 924.2 191.456 923.729 191.28C923.258 191.104 922.83 190.83 922.473 190.476L864.653 133.537C864.312 133.201 864.043 132.801 863.86 132.359C863.677 131.918 863.584 131.444 863.588 130.966C863.591 130.488 863.69 130.016 863.879 129.576C864.067 129.137 864.342 128.74 864.687 128.409L914.658 80.6142C915.066 80.2239 915.375 79.7428 915.561 79.21C915.747 78.6773 915.804 78.1081 915.728 77.549C915.652 76.9899 915.445 76.4567 915.123 75.9932C914.802 75.5296 914.376 75.1488 913.879 74.8819L856.954 44.3387C856.534 44.1126 856.164 43.8048 855.865 43.4333C855.566 43.0618 855.345 42.6342 855.214 42.1756C855.082 41.717 855.044 41.2368 855.101 40.7632C855.158 40.2895 855.309 39.8321 855.546 39.4178L894.121 -28.0858C894.363 -28.511 894.691 -28.8817 895.082 -29.1751C895.474 -29.4685 895.922 -29.6782 896.398 -29.7913C896.874 -29.9044 897.368 -29.9184 897.849 -29.8325C898.331 -29.7467 898.79 -29.5627 899.197 -29.2921L944.595 0.794409C945.106 1.13343 945.697 1.33429 946.309 1.37749C946.921 1.4207 947.534 1.30479 948.088 1.04101C948.642 0.777225 949.119 0.374526 949.472 -0.127998C949.825 -0.630528 950.042 -1.21581 950.102 -1.82706L957.307 -72.7884C957.395 -73.7269 957.849 -74.5927 958.572 -75.1976C959.294 -75.8025 960.225 -76.0975 961.164 -76.0184L1043.47 -68.9609C1043.95 -68.9172 1044.42 -68.7747 1044.85 -68.542C1045.28 -68.3094 1045.65 -67.9916 1045.95 -67.6083C1046.25 -67.225 1046.47 -66.7843 1046.59 -66.3133C1046.71 -65.8424 1046.74 -65.3512 1046.67 -64.8701L1034.67 10.1442C1034.56 10.8096 1034.64 11.4913 1034.91 12.1109C1035.17 12.7304 1035.61 13.2626 1036.16 13.646C1036.71 14.0293 1037.36 14.2484 1038.04 14.2778C1038.71 14.3073 1039.38 14.1459 1039.96 13.8124L1092.5 -16.3144C1092.95 -16.5763 1093.45 -16.7363 1093.97 -16.7829C1094.49 -16.8296 1095.01 -16.7619 1095.5 -16.5845C1095.99 -16.4071 1096.44 -16.1243 1096.81 -15.7561C1097.18 -15.3878 1097.46 -14.9431 1097.64 -14.453L1124.95 62.3105C1125.11 62.7758 1125.18 63.2701 1125.14 63.762C1125.1 64.254 1124.96 64.733 1124.73 65.1686C1124.5 65.6042 1124.18 65.9869 1123.79 66.2925C1123.41 66.5981 1122.96 66.82 1122.48 66.944L1063.4 82.2347C1062.86 82.3754 1062.36 82.6413 1061.94 83.011C1061.52 83.3807 1061.2 83.8438 1060.99 84.3632C1060.78 84.8825 1060.7 85.4436 1060.74 86.0012C1060.79 86.5587 1060.97 87.0973 1061.26 87.5735Z" fill="white" fill-opacity="0.15"/>
</g>
<defs>
<filter id="filter0_i_308_164" x="0" y="0" width="1440" height="717" filterUnits="userSpaceOnUse" color-interpolation-filters="sRGB">
<feFlood flood-opacity="0" result="BackgroundImageFix"/>
<feBlend mode="normal" in="SourceGraphic" in2="BackgroundImageFix" result="shape"/>
<feColorMatrix in="SourceAlpha" type="matrix" values="0 0 0 0 0 0 0 0 0 0 0 0 0 0 0 0 0 0 127 0" result="hardAlpha"/>
<feOffset dy="3"/>
<feGaussianBlur stdDeviation="2.5"/>
<feComposite in2="hardAlpha" operator="arithmetic" k2="-1" k3="1"/>
<feColorMatrix type="matrix" values="0 0 0 0 0 0 0 0 0 0 0 0 0 0 0 0 0 0 0.25 0"/>
<feBlend mode="normal" in2="shape" result="effect1_innerShadow_308_164"/>
</filter>
<filter id="filter1_b_308_164" x="-15" y="-15" width="1470" height="744" filterUnits="userSpaceOnUse" color-interpolation-filters="sRGB">
<feFlood flood-opacity="0" result="BackgroundImageFix"/>
<feGaussianBlur in="BackgroundImage" stdDeviation="7.5"/>
<feComposite in2="SourceAlpha" operator="in" result="effect1_backgroundBlur_308_164"/>
<feBlend mode="normal" in="SourceGraphic" in2="effect1_backgroundBlur_308_164" result="shape"/>
</filter>
<linearGradient id="paint0_linear_308_164" x1="-20.5" y1="883" x2="1440" y2="-677" gradientUnits="userSpaceOnUse">
<stop stop-color="#388CE7"/>
<stop offset="0.423543" stop-color="#399FD9"/>
<stop offset="1" stop-color="#3BDEA8"/>
</linearGradient>
<clipPath id="clip0_308_164">
<rect width="1440" height="714" fill="white"/>
</clipPath>
</defs>
</svg>
