<svg xmlns="http://www.w3.org/2000/svg" viewBox="0 0 362.74 362.73"><defs><style>.cls-1{fill:#fdfefe;}.cls-2{fill:#2d2d2d;}</style></defs><g id="Layer_2" data-name="Layer 2"><g id="Layer_1-2" data-name="Layer 1"><circle class="cls-1" cx="181.37" cy="181.37" r="172.76"/><path class="cls-2" d="M280.65,151.22V267.64a14.52,14.52,0,0,1-14.5,14.5H93.59a14.52,14.52,0,0,1-14.5-14.5V95.09a14.52,14.52,0,0,1,14.5-14.5H205a32.77,32.77,0,0,1,2.53-5.15,22,22,0,0,1,5.38-5.85H93.59a25.53,25.53,0,0,0-25.5,25.5V267.64a25.53,25.53,0,0,0,25.5,25.5H266.15a25.53,25.53,0,0,0,25.5-25.5V142.55A40.59,40.59,0,0,1,280.65,151.22Z"/><path class="cls-2" d="M196.55,121.71H148a4.51,4.51,0,0,1-4.5-4.5V80.59H205a32.77,32.77,0,0,1,2.53-5.15,22,22,0,0,1,5.38-5.85H132.5v47.62a15.51,15.51,0,0,0,15.5,15.5h53.13A44.4,44.4,0,0,1,196.55,121.71Z"/><path class="cls-2" d="M253.6,293.14H106.08V205a15.51,15.51,0,0,1,15.5-15.5H238.1A15.51,15.51,0,0,1,253.6,205Zm-136.52-11H242.6V205a4.51,4.51,0,0,0-4.5-4.5H121.58a4.51,4.51,0,0,0-4.5,4.5Z"/><path class="cls-2" d="M227.31,222H132.43a5.5,5.5,0,0,1,0-11h94.88a5.5,5.5,0,0,1,0,11Z"/><path class="cls-2" d="M227.31,242.13H132.43a5.5,5.5,0,0,1,0-11h94.88a5.5,5.5,0,0,1,0,11Z"/><path class="cls-2" d="M227.31,262.31H132.43a5.5,5.5,0,0,1,0-11h94.88a5.5,5.5,0,0,1,0,11Z"/><path class="cls-2" d="M181.37,362.73C81.36,362.73,0,281.37,0,181.37S81.36,0,181.37,0,362.74,81.36,362.74,181.37,281.37,362.73,181.37,362.73Zm0-351.73C87.43,11,11,87.43,11,181.37S87.43,351.73,181.37,351.73s170.37-76.42,170.37-170.36S275.31,11,181.37,11Z"/><path class="cls-2" d="M248.1,168.05a58.24,58.24,0,1,1,58.24-58.23A58.29,58.29,0,0,1,248.1,168.05Zm0-105.47a47.24,47.24,0,1,0,47.24,47.24A47.29,47.29,0,0,0,248.1,62.58Z"/><path class="cls-2" d="M227.72,135.7a5.51,5.51,0,0,1-3.89-9.39l40.76-40.76a5.5,5.5,0,1,1,7.78,7.77l-40.76,40.76A5.46,5.46,0,0,1,227.72,135.7Z"/><path class="cls-2" d="M268.48,135.7a5.49,5.49,0,0,1-3.89-1.62L223.83,93.32a5.5,5.5,0,0,1,7.78-7.77l40.76,40.76a5.51,5.51,0,0,1-3.89,9.39Z"/></g></g></svg>