<svg width="293" height="89" viewBox="0 0 293 89" fill="none" xmlns="http://www.w3.org/2000/svg">
<g clip-path="url(#clip0_349_49)">
<path d="M169.235 53.5236L183.412 70.1734C183.686 70.4933 183.892 70.8671 184.014 71.2711C184.137 71.675 184.174 72.1002 184.124 72.5194C184.074 72.9387 183.937 73.3428 183.723 73.7061C183.508 74.0693 183.22 74.3837 182.878 74.6292L164.34 88.3522C163.973 88.6232 163.555 88.8156 163.111 88.9175C162.667 89.0194 162.207 89.0286 161.759 88.9446C161.311 88.8606 160.886 88.6851 160.508 88.4291C160.131 88.173 159.81 87.8419 159.566 87.4562L147.063 66.9691C147.003 66.8745 146.92 66.7967 146.822 66.7428C146.724 66.6889 146.614 66.6607 146.502 66.6607C146.391 66.6607 146.281 66.6889 146.183 66.7428C146.085 66.7967 146.002 66.8745 145.942 66.9691L133.439 87.4562C133.195 87.8391 132.875 88.1677 132.499 88.4219C132.123 88.6761 131.7 88.8505 131.255 88.9345C130.809 89.0184 130.352 89.01 129.91 88.9099C129.468 88.8098 129.051 88.62 128.684 88.3522L110.127 74.6292C109.785 74.3833 109.498 74.0687 109.284 73.7054C109.07 73.3421 108.933 72.9382 108.883 72.5191C108.833 72.1001 108.87 71.6752 108.992 71.2713C109.114 70.8675 109.319 70.4936 109.593 70.1734L123.77 53.5236C123.833 53.4475 123.878 53.357 123.899 53.26C123.92 53.1629 123.917 53.0621 123.891 52.9663C123.865 52.8705 123.816 52.7825 123.748 52.71C123.68 52.6374 123.596 52.5824 123.503 52.5496L104.096 45.245C103.698 45.1083 103.333 44.8911 103.022 44.6069C102.711 44.3227 102.462 43.9775 102.29 43.5926C102.117 43.2078 102.025 42.7915 102.02 42.3696C102.014 41.9477 102.095 41.5291 102.257 41.1398L110.903 21.3587C111.09 20.9528 111.357 20.5892 111.688 20.2898C112.02 19.9905 112.408 19.7615 112.829 19.6168C113.251 19.4721 113.697 19.4146 114.142 19.4478C114.586 19.4811 115.019 19.6043 115.415 19.8102L130.538 27.5531C130.635 27.6086 130.746 27.6378 130.858 27.6379C130.97 27.6379 131.08 27.6089 131.178 27.5535C131.276 27.4981 131.357 27.4182 131.415 27.3217C131.473 27.2253 131.505 27.1154 131.508 27.0028V3.14092C131.514 2.72161 131.603 2.30767 131.769 1.92278C131.935 1.53789 132.175 1.18961 132.475 0.897864C132.775 0.606121 133.129 0.376643 133.518 0.222562C133.907 0.0684815 134.322 -0.00717851 134.739 -8.79138e-05H158.28C159.122 -0.0170668 159.937 0.302014 160.546 0.887182C161.154 1.47235 161.507 2.27584 161.526 3.12144V26.9833C161.527 27.0965 161.558 27.2072 161.616 27.3046C161.673 27.4019 161.755 27.4824 161.854 27.5381C161.952 27.5937 162.063 27.6226 162.175 27.6218C162.288 27.621 162.399 27.5906 162.496 27.5336L177.59 19.815C177.985 19.6092 178.419 19.4859 178.863 19.4527C179.307 19.4194 179.754 19.4769 180.176 19.6216C180.597 19.7664 180.985 19.9953 181.316 20.2947C181.647 20.5941 181.915 20.9577 182.102 21.3636L190.748 41.1446C190.917 41.5344 191.005 41.9552 191.005 42.3805C191.004 42.8059 190.916 43.2265 190.745 43.6159C190.575 44.0053 190.326 44.355 190.014 44.643C189.702 44.9309 189.334 45.1508 188.933 45.2888L169.502 52.5935C169.414 52.6266 169.336 52.6799 169.272 52.749C169.209 52.818 169.162 52.9011 169.136 52.9914C169.11 53.0817 169.106 53.1768 169.123 53.2692C169.14 53.3616 169.179 53.4487 169.235 53.5236V53.5236Z" fill="url(#paint0_linear_349_49)"/>
</g>
<g clip-path="url(#clip1_349_49)">
<path d="M67.2356 53.5236L81.4124 70.1734C81.687 70.4933 81.8921 70.8671 82.0147 71.2711C82.1373 71.675 82.1747 72.1002 82.1245 72.5194C82.0743 72.9387 81.9376 73.3428 81.7231 73.7061C81.5086 74.0693 81.221 74.3837 80.8787 74.6292L62.3402 88.3522C61.9735 88.6232 61.5551 88.8156 61.1111 88.9175C60.6671 89.0194 60.207 89.0287 59.7594 88.9446C59.3117 88.8606 58.886 88.6851 58.5087 88.4291C58.1314 88.173 57.8106 87.8419 57.5662 87.4562L45.0633 66.9691C45.0032 66.8745 44.9204 66.7967 44.8224 66.7428C44.7245 66.689 44.6146 66.6607 44.5029 66.6607C44.3912 66.6607 44.2813 66.689 44.1834 66.7428C44.0854 66.7967 44.0026 66.8745 43.9425 66.9691L31.4396 87.4562C31.1951 87.8391 30.8752 88.1677 30.4995 88.4219C30.1238 88.6761 29.7003 88.8505 29.255 88.9345C28.8097 89.0184 28.352 89.01 27.91 88.9099C27.4681 88.8098 27.0512 88.62 26.6849 88.3522L8.1271 74.6292C7.7854 74.3833 7.49839 74.0687 7.28432 73.7054C7.07025 73.3421 6.93378 72.9382 6.88359 72.5191C6.8334 72.1001 6.87059 71.6752 6.99279 71.2714C7.11498 70.8675 7.31952 70.4936 7.59341 70.1734L21.7701 53.5236C21.8338 53.4475 21.8781 53.357 21.8992 53.26C21.9204 53.1629 21.9177 53.0621 21.8914 52.9663C21.8652 52.8705 21.8161 52.7825 21.7485 52.71C21.6809 52.6374 21.5968 52.5824 21.5033 52.5497L2.09641 45.245C1.69868 45.1083 1.33314 44.8911 1.02244 44.6069C0.711729 44.3227 0.462466 43.9775 0.290086 43.5926C0.117705 43.2078 0.025878 42.7915 0.0202908 42.3696C0.0147036 41.9477 0.0954756 41.5291 0.257604 41.1398L8.90337 21.3587C9.09062 20.9529 9.35784 20.5892 9.68893 20.2898C10.02 19.9905 10.4081 19.7615 10.8298 19.6168C11.2514 19.4721 11.6979 19.4146 12.1423 19.4478C12.5867 19.4811 13.0198 19.6043 13.4155 19.8102L28.5383 27.5531C28.6359 27.6086 28.7462 27.6378 28.8584 27.6379C28.9706 27.6379 29.0809 27.6089 29.1785 27.5535C29.2762 27.4981 29.358 27.4182 29.4158 27.3218C29.4737 27.2253 29.5056 27.1154 29.5086 27.0028V3.14092C29.515 2.72161 29.6036 2.30767 29.7695 1.92278C29.9353 1.53789 30.1752 1.18961 30.4753 0.897864C30.7755 0.606121 31.13 0.376644 31.5185 0.222562C31.9071 0.0684815 32.3221 -0.00717851 32.7399 -8.79138e-05H56.2804C57.123 -0.0170668 57.9378 0.302014 58.5463 0.887182C59.1547 1.47235 59.5071 2.27584 59.5262 3.12144V26.9833C59.5278 27.0965 59.5589 27.2072 59.6165 27.3046C59.674 27.4019 59.7559 27.4824 59.854 27.5381C59.9522 27.5937 60.0632 27.6226 60.1759 27.6218C60.2886 27.621 60.3992 27.5906 60.4966 27.5336L75.5903 19.815C75.9859 19.6092 76.419 19.4859 76.8634 19.4527C77.3078 19.4195 77.7543 19.4769 78.176 19.6216C78.5977 19.7664 78.9858 19.9953 79.3168 20.2947C79.6479 20.5941 79.9152 20.9577 80.1024 21.3636L88.7482 41.1446C88.9179 41.5344 89.0054 41.9552 89.005 42.3805C89.0046 42.8059 88.9164 43.2265 88.7459 43.6159C88.5754 44.0053 88.3263 44.355 88.0144 44.643C87.7025 44.9309 87.3345 45.1508 86.9336 45.2888L67.5025 52.5935C67.4149 52.6267 67.3362 52.6799 67.2727 52.749C67.2091 52.8181 67.1626 52.9011 67.1367 52.9914C67.1108 53.0817 67.1062 53.1768 67.1234 53.2692C67.1406 53.3616 67.179 53.4487 67.2356 53.5236V53.5236Z" fill="#2D2D2D" fill-opacity="0.15"/>
</g>
<g clip-path="url(#clip2_349_49)">
<path d="M271.236 53.5236L285.412 70.1734C285.687 70.4933 285.892 70.8671 286.015 71.2711C286.137 71.675 286.175 72.1002 286.125 72.5194C286.074 72.9387 285.938 73.3428 285.723 73.7061C285.509 74.0693 285.221 74.3837 284.879 74.6292L266.34 88.3522C265.973 88.6232 265.555 88.8156 265.111 88.9175C264.667 89.0194 264.207 89.0287 263.759 88.9446C263.312 88.8606 262.886 88.6851 262.509 88.4291C262.131 88.173 261.811 87.8419 261.566 87.4562L249.063 66.9691C249.003 66.8745 248.92 66.7967 248.822 66.7428C248.724 66.689 248.615 66.6607 248.503 66.6607C248.391 66.6607 248.281 66.689 248.183 66.7428C248.085 66.7967 248.003 66.8745 247.943 66.9691L235.44 87.4562C235.195 87.8391 234.875 88.1677 234.499 88.4219C234.124 88.6761 233.7 88.8505 233.255 88.9345C232.81 89.0184 232.352 89.01 231.91 88.9099C231.468 88.8098 231.051 88.62 230.685 88.3522L212.127 74.6292C211.785 74.3833 211.498 74.0687 211.284 73.7054C211.07 73.3421 210.934 72.9382 210.884 72.5191C210.833 72.1001 210.871 71.6752 210.993 71.2714C211.115 70.8675 211.32 70.4936 211.593 70.1734L225.77 53.5236C225.834 53.4475 225.878 53.357 225.899 53.26C225.92 53.1629 225.918 53.0621 225.891 52.9663C225.865 52.8705 225.816 52.7825 225.749 52.71C225.681 52.6374 225.597 52.5824 225.503 52.5497L206.096 45.245C205.699 45.1083 205.333 44.8911 205.022 44.6069C204.712 44.3227 204.462 43.9775 204.29 43.5926C204.118 43.2078 204.026 42.7915 204.02 42.3696C204.015 41.9477 204.095 41.5291 204.258 41.1398L212.903 21.3587C213.091 20.9529 213.358 20.5892 213.689 20.2898C214.02 19.9905 214.408 19.7615 214.83 19.6168C215.251 19.4721 215.698 19.4146 216.142 19.4478C216.587 19.4811 217.02 19.6043 217.415 19.8102L232.538 27.5531C232.636 27.6086 232.746 27.6378 232.858 27.6379C232.971 27.6379 233.081 27.6089 233.179 27.5535C233.276 27.4981 233.358 27.4182 233.416 27.3218C233.474 27.2253 233.506 27.1154 233.509 27.0028V3.14092C233.515 2.72161 233.604 2.30767 233.769 1.92278C233.935 1.53789 234.175 1.18961 234.475 0.897864C234.775 0.606121 235.13 0.376644 235.519 0.222562C235.907 0.0684815 236.322 -0.00717851 236.74 -8.79138e-05H260.28C261.123 -0.0170668 261.938 0.302014 262.546 0.887182C263.155 1.47235 263.507 2.27584 263.526 3.12144V26.9833C263.528 27.0965 263.559 27.2072 263.616 27.3046C263.674 27.4019 263.756 27.4824 263.854 27.5381C263.952 27.5937 264.063 27.6226 264.176 27.6218C264.289 27.621 264.399 27.5906 264.497 27.5336L279.59 19.815C279.986 19.6092 280.419 19.4859 280.863 19.4527C281.308 19.4195 281.754 19.4769 282.176 19.6216C282.598 19.7664 282.986 19.9953 283.317 20.2947C283.648 20.5941 283.915 20.9577 284.102 21.3636L292.748 41.1446C292.918 41.5344 293.005 41.9552 293.005 42.3805C293.005 42.8059 292.916 43.2265 292.746 43.6159C292.575 44.0053 292.326 44.355 292.014 44.643C291.702 44.9309 291.334 45.1508 290.934 45.2888L271.502 52.5935C271.415 52.6267 271.336 52.6799 271.273 52.749C271.209 52.8181 271.163 52.9011 271.137 52.9914C271.111 53.0817 271.106 53.1768 271.123 53.2692C271.141 53.3616 271.179 53.4487 271.236 53.5236V53.5236Z" fill="#2D2D2D" fill-opacity="0.15"/>
</g>
<defs>
<linearGradient id="paint0_linear_349_49" x1="105.716" y1="95.3988" x2="208.983" y2="-22.7468" gradientUnits="userSpaceOnUse">
<stop offset="0.16" stop-color="#388CE7"/>
<stop offset="0.53" stop-color="#3ABBC3"/>
<stop offset="0.83" stop-color="#3BDEA8"/>
</linearGradient>
<clipPath id="clip0_349_49">
<rect width="89" height="89" fill="white" transform="translate(102)"/>
</clipPath>
<clipPath id="clip1_349_49">
<rect width="89" height="89" fill="white"/>
</clipPath>
<clipPath id="clip2_349_49">
<rect width="89" height="89" fill="white" transform="translate(204)"/>
</clipPath>
</defs>
</svg>
