<svg width="442" height="469" viewBox="0 0 442 469" fill="none" xmlns="http://www.w3.org/2000/svg">
<path d="M338.039 220.647L438.656 286.608C439.948 287.457 440.852 288.783 441.168 290.297C441.485 291.81 441.19 293.388 440.346 294.683L366.276 408.289C365.832 408.969 365.251 409.549 364.569 409.99C363.888 410.431 363.121 410.725 362.32 410.852C361.518 410.979 360.698 410.936 359.913 410.727C359.129 410.518 358.396 410.146 357.764 409.637L251.9 324.619C251.13 324.002 250.216 323.59 249.245 323.422C248.273 323.254 247.274 323.335 246.342 323.658C245.41 323.98 244.575 324.534 243.916 325.268C243.256 326.001 242.793 326.89 242.569 327.851L210.753 464.45C210.571 465.252 210.222 466.006 209.727 466.662C209.232 467.318 208.604 467.861 207.883 468.255C207.163 468.649 206.367 468.886 205.548 468.949C204.729 469.012 203.906 468.9 203.133 468.621L78.2749 424.009C77.54 423.746 76.8651 423.338 76.2903 422.81C75.7154 422.281 75.2523 421.643 74.9282 420.932C74.604 420.221 74.4256 419.453 74.4033 418.672C74.3811 417.892 74.5154 417.115 74.7986 416.387L115.981 311.179C116.316 310.32 116.443 309.394 116.352 308.477C116.261 307.56 115.954 306.677 115.457 305.9C114.96 305.124 114.286 304.476 113.491 304.01C112.696 303.544 111.802 303.273 110.883 303.219L5.50782 297.111C4.73045 297.065 3.97011 296.863 3.27161 296.518C2.57311 296.173 1.95056 295.692 1.44064 295.102C0.930721 294.513 0.543744 293.828 0.302497 293.086C0.0612502 292.345 -0.0293873 291.563 0.0359305 290.787L10.771 164.21C10.8383 163.413 11.0683 162.638 11.447 161.934C11.8257 161.23 12.3449 160.611 12.9724 160.116C13.6 159.621 14.3225 159.26 15.0952 159.056C15.8679 158.852 16.6743 158.809 17.4644 158.93L105.441 172.291C106.432 172.442 107.446 172.333 108.382 171.976C109.319 171.619 110.148 171.026 110.788 170.254C111.428 169.481 111.857 168.557 112.035 167.569C112.212 166.582 112.131 165.565 111.8 164.617L73.6648 54.4948C73.1495 53.0436 73.2275 51.4477 73.8818 50.0544C74.5362 48.6611 75.7139 47.5831 77.1589 47.0549L203.991 0.899011C204.739 0.630608 205.534 0.518441 206.327 0.569423C207.12 0.620395 207.894 0.833441 208.602 1.1954C209.309 1.55738 209.936 2.0606 210.442 2.67402C210.948 3.28744 211.323 3.99805 211.544 4.76202L245.361 124.19C245.662 125.249 246.255 126.201 247.073 126.937C247.891 127.674 248.9 128.164 249.984 128.352C251.068 128.539 252.182 128.416 253.199 127.997C254.216 127.578 255.094 126.88 255.731 125.984L312.866 45.1973C313.355 44.4987 313.99 43.9158 314.728 43.4893C315.466 43.0629 316.288 42.8033 317.136 42.7289C317.985 42.6544 318.84 42.767 319.641 43.0585C320.442 43.35 321.17 43.8135 321.773 44.4164L415.044 139.399C415.607 139.976 416.044 140.663 416.328 141.418C416.611 142.173 416.735 142.978 416.692 143.783C416.648 144.587 416.438 145.374 416.075 146.094C415.712 146.813 415.203 147.448 414.581 147.96L337.541 211.261C336.836 211.842 336.277 212.58 335.909 213.417C335.541 214.254 335.375 215.165 335.423 216.078C335.472 216.991 335.734 217.881 336.188 218.674C336.642 219.468 337.276 220.143 338.039 220.647Z" fill="white" fill-opacity="0.15"/>
</svg>
