<svg xmlns="http://www.w3.org/2000/svg" viewBox="0 0 362.73 362.73"><defs><style>.cls-1{fill:#fdfefe;}.cls-2{fill:#2d2d2d;}</style></defs><g id="Layer_2" data-name="Layer 2"><g id="Layer_1-2" data-name="Layer 1"><circle class="cls-1" cx="184.9" cy="181.37" r="172.76"/><path class="cls-2" d="M181.37,362.73C81.36,362.73,0,281.37,0,181.37S81.36,0,181.37,0,362.73,81.36,362.73,181.37,281.37,362.73,181.37,362.73Zm0-351.73C87.43,11,11,87.43,11,181.37S87.43,351.73,181.37,351.73s170.36-76.42,170.36-170.36S275.31,11,181.37,11Z"/><path class="cls-2" d="M281.09,257.52a5.43,5.43,0,0,1-2-.39A5.5,5.5,0,0,1,276,250l4.67-11.67a5.5,5.5,0,1,1,10.21,4.08l-4.67,11.67A5.48,5.48,0,0,1,281.09,257.52Z"/><path class="cls-2" d="M131.76,165.19a5.5,5.5,0,0,1-7.78,0l-8.41-8.41a5.5,5.5,0,1,1,7.78-7.78l8.41,8.41A5.5,5.5,0,0,1,131.76,165.19Z"/><path class="cls-2" d="M167.1,165.19a5.5,5.5,0,0,1,0-7.78l8.41-8.41a5.5,5.5,0,0,1,7.78,7.78l-8.41,8.41A5.5,5.5,0,0,1,167.1,165.19Z"/><path class="cls-2" d="M149.73,162.55a5.5,5.5,0,0,1-5.5-5.5v-11.9a5.5,5.5,0,0,1,11,0v11.9A5.5,5.5,0,0,1,149.73,162.55Z"/><path class="cls-2" d="M126.79,191.39a81,81,0,0,0-62.18-32.27A81.18,81.18,0,0,0,5.72,182.46a8.07,8.07,0,0,1,.39,2.09c.2,3.87.8,7.81,1.31,11.76a5.49,5.49,0,0,0,1.75-1.38,70.9,70.9,0,0,1,55.14-24.81A70.91,70.91,0,0,1,118,198a5.5,5.5,0,0,0,8.81-6.58Z"/><path class="cls-2" d="M101.05,233.72a5.51,5.51,0,0,1-5.3-7,70.32,70.32,0,0,1,105.64-40.1,5.5,5.5,0,0,1-5.94,9.26,59.3,59.3,0,0,0-89.11,33.83A5.51,5.51,0,0,1,101.05,233.72Z"/><path class="cls-2" d="M217.35,225.05a5.66,5.66,0,0,1-1.4-.18c-18.22-4.77-22.21-25-20.09-40.91,0-.14,0-.28.07-.42,3.31-15.44,7.35-30,11.26-44.15,2.4-8.67,4.88-17.63,7.16-26.68A5.5,5.5,0,1,1,225,115.4c-2.31,9.17-4.81,18.2-7.22,26.92-3.85,13.9-7.82,28.27-11,43.3-.59,4.59-2.32,24.86,12,28.61a5.5,5.5,0,0,1-1.39,10.82Z"/><path class="cls-2" d="M313.27,253.77A1624.49,1624.49,0,0,0,264.39,78,5.5,5.5,0,1,0,254,81.54a1614.54,1614.54,0,0,1,48.54,174.58c1,4.5,1.7,8.47.54,11.51a7.73,7.73,0,0,1-5.88,4.69c-.5.07-.82,0-3.05-3.06-.33-.45-.67-.91-1-1.37a5.49,5.49,0,0,0-8.32-.51,160,160,0,0,1-86,45.6c-29.66,5.28-61.4-.06-94.33-15.85a5.49,5.49,0,0,0-5.63.52A129.53,129.53,0,0,1,69,314c2.79,2.77,5.51,5.62,8.09,8.57a140.53,140.53,0,0,0,25.6-14.08c34,15.73,67,20.9,98.06,15.37a171.15,171.15,0,0,0,87.49-44.38,11.59,11.59,0,0,0,10.48,3.78,18.67,18.67,0,0,0,14.6-11.64C315.76,265.21,314.32,258.6,313.27,253.77Z"/><path class="cls-2" d="M212.83,120.47a40.5,40.5,0,0,1-15.89-3.5,22.31,22.31,0,0,1-8.93-6.22,12.91,12.91,0,0,1-1.95-13.6A5.5,5.5,0,0,1,196,102a2.52,2.52,0,0,0,.64,1.91,12.54,12.54,0,0,0,4.67,3c4.05,1.73,10.11,3.51,16,2.12,4.9-1.16,8.89-4.66,9.93-8.73A5.5,5.5,0,0,1,237.82,103c-2.06,8-9.15,14.6-18.06,16.71A30.35,30.35,0,0,1,212.83,120.47Z"/><path class="cls-2" d="M260.42,89.18a5.14,5.14,0,0,1-1-.1A5.5,5.5,0,0,1,255,82.66c.42-2.18-1.62-5.45-4.43-7.14C233.7,65.26,217.67,57,200.69,48.15L190.82,43a38,38,0,0,0-9.74-3c-8.15-.76-14.93,1.14-20.16,5.64-1.75,1.75-3.65,3.44-5.48,5.09-7.6,6.8-14.17,12.68-13.12,21.95a5.81,5.81,0,0,0,2.75,4.1,3.09,3.09,0,0,0,3,0,5.5,5.5,0,0,1,4.78,9.9,13.94,13.94,0,0,1-12.93-.19,16.84,16.84,0,0,1-8.48-12.32s0-.09,0-.13c-1.77-15,8.47-24.14,16.69-31.51,1.86-1.66,3.61-3.23,5.18-4.8l.27-.25c7.57-6.63,17.57-9.53,28.89-8.4a4.85,4.85,0,0,1,.53.08,48.72,48.72,0,0,1,12.86,4c3.38,1.77,6.66,3.47,9.92,5.16,17.15,8.89,33.35,17.28,50.51,27.73,5.64,3.38,11.06,10.66,9.55,18.59A5.5,5.5,0,0,1,260.42,89.18Z"/><path class="cls-2" d="M166.3,104.43a20.34,20.34,0,0,1-20.1-24.64C147.46,74,151.1,69.4,154,65.73L170.9,44.58a5.5,5.5,0,0,1,8.6,6.86L162.63,72.59c-2.44,3-5,6.22-5.68,9.52a9.38,9.38,0,0,0,11.49,11.06,5.5,5.5,0,0,1,2.73,10.66A20,20,0,0,1,166.3,104.43Z"/><path class="cls-2" d="M184.93,118.58a22.43,22.43,0,0,1-6.4-.93,20.44,20.44,0,0,1-13.14-11.06,4.07,4.07,0,0,1-.22-.58c-4.69-14.84,3.86-25.92,11.4-35.7a90.37,90.37,0,0,0,7.14-10.15,5.5,5.5,0,0,1,9.57,5.42,99.85,99.85,0,0,1-8,11.45c-6.67,8.65-12.44,16.13-9.72,25.35a9.8,9.8,0,0,0,6.08,4.72,10.51,10.51,0,0,0,8.73-1.08,5.5,5.5,0,0,1,6,9.21A20.94,20.94,0,0,1,184.93,118.58Z"/><path class="cls-2" d="M74.78,315.42a5.51,5.51,0,0,1-4.48-2.3C41.29,272.69,34.43,215,52.84,166a5.5,5.5,0,1,1,10.29,3.88C46,215.48,52.31,269.18,79.24,306.71a5.51,5.51,0,0,1-4.46,8.71Z"/></g></g></svg>