<svg xmlns="http://www.w3.org/2000/svg" viewBox="0 0 362.74 362.73"><defs><style>.cls-1{fill:#fdfefe;}.cls-2{fill:#2d2d2d;}</style></defs><g id="Layer_2" data-name="Layer 2"><g id="Layer_1-2" data-name="Layer 1"><circle class="cls-1" cx="181.96" cy="181.37" r="172.76"/><path class="cls-2" d="M181.37,362.73C81.36,362.73,0,281.37,0,181.37S81.36,0,181.37,0,362.74,81.36,362.74,181.37,281.37,362.73,181.37,362.73Zm0-351.73C87.43,11,11,87.43,11,181.37S87.43,351.73,181.37,351.73s170.37-76.42,170.37-170.36S275.31,11,181.37,11Z"/><path class="cls-2" d="M76.33,325.37A5.51,5.51,0,0,1,72.44,316l39.77-39.78c-6.57-6.81-14.1-19.42-14.52-41.59-.2-10.39,1.34-20.61,2.83-30.51.78-5.15,1.58-10.49,2.1-15.68,1.78-17.65-.45-31-6.84-40.72-.68-1-1.44-2.12-2.24-3.24-3.74-5.27-8.39-11.82-7.08-19.79,1.71-10.38,12.91-16,22.29-14.81,7.22,1,14.09,5,21,12.53A83.87,83.87,0,0,1,151,190.2a5.5,5.5,0,0,1-10.9-1.51,72.81,72.81,0,0,0-18.45-58.84c-5.1-5.51-9.79-8.48-14.36-9.08-4.1-.53-9.37,1.83-10,5.69-.58,3.5,2.23,7.45,5.2,11.63.82,1.16,1.68,2.36,2.48,3.58,7.81,11.94,10.62,27.59,8.58,47.85-.55,5.47-1.38,10.93-2.17,16.22-1.49,9.88-2.89,19.2-2.71,28.66.15,8,1.9,27.66,14.8,37.12a5.5,5.5,0,0,1,.63,8.33l-43.9,43.9A5.49,5.49,0,0,1,76.33,325.37Z"/><path class="cls-2" d="M135.27,204.91a5.49,5.49,0,0,1-3.94-9.34L237.18,87.12c5.23-5.36,11.73-12,20.35-15,9-3.14,21.47-1.32,27,8.22,3.27,5.66,3.34,13.2.2,20.17-2.56,5.67-6.66,10.13-10.27,14.06-22.85,24.85-46.44,49.64-70.12,73.68a5.5,5.5,0,0,1-7.84-7.72c23.6-24,47.1-48.65,69.86-73.4,3.2-3.49,6.51-7.09,8.34-11.15,1.67-3.69,1.78-7.58.3-10.14-2.42-4.2-9.06-5-13.82-3.34C255,84.62,249.71,90,245.05,94.8L139.2,203.25A5.45,5.45,0,0,1,135.27,204.91Z"/><path class="cls-2" d="M223.48,212.63a5.5,5.5,0,0,1-3.72-9.55l1-.93c16.74-15.31,17.33-21.28,12.69-26.42-2-2.17-7.56-6.33-16.94,2-1.13,1-2.3,2-3.49,3a84.24,84.24,0,0,0-8.09,7.47,5.5,5.5,0,0,1-8.19-7.35,93.21,93.21,0,0,1,9.15-8.51c1.14-1,2.26-1.91,3.33-2.86,11.1-9.82,24.11-10.26,32.39-1.1,14.65,16.22-4.31,33.57-13.43,41.91l-1,.91A5.49,5.49,0,0,1,223.48,212.63Z"/><path class="cls-2" d="M246.27,235.41a5.5,5.5,0,0,1-3.73-9.55l1-.92c12.68-11.6,18.82-19.64,12.69-26.42-2-2.18-7.55-6.34-16.94,2-1.12,1-2.3,2-3.49,3a85.45,85.45,0,0,0-8.09,7.47,5.5,5.5,0,1,1-8.18-7.35,93.2,93.2,0,0,1,9.15-8.5c1.13-1,2.25-1.92,3.32-2.86,11.1-9.82,24.12-10.26,32.39-1.1,14.66,16.22-4.31,33.57-13.43,41.91l-1,.9A5.49,5.49,0,0,1,246.27,235.41Z"/><path class="cls-2" d="M286.63,214.35c-8.28-9.16-21.3-8.72-32.39,1.1-1.07.94-2.19,1.9-3.33,2.86a93.21,93.21,0,0,0-9.15,8.51,5.5,5.5,0,0,0,8.19,7.34,85.55,85.55,0,0,1,8.09-7.47c1.19-1,2.36-2,3.49-3,3.12-2.77,11-8.5,16.93-2,6.13,6.78,0,14.83-12.69,26.42l-1,.92c-10.66,9.8-19.54,20.42-28.12,30.7-4.81,5.75-9.78,11.7-15.05,17.5-4.65,5.11-9.45,10.4-14.93,14.31-4,2.85-10.2,6.2-17,6.1-1.49,0-3.1-.22-4.79-.42-4.08-.48-8.69-1-13.38.59-5.56,1.92-9.41,6.37-12.23,9.62l-22.61,26.12a32.26,32.26,0,0,1,7.41,3c1.24.29,2.48.59,3.71.95l19.81-22.89c2.22-2.56,4.73-5.47,7.5-6.42,2.31-.8,5.17-.46,8.5-.07a54.8,54.8,0,0,0,5.89.49c7.82.15,15.95-2.67,23.6-8.14,6.44-4.6,11.64-10.32,16.68-15.86,5.43-6,10.47-12,15.35-17.85,8.74-10.46,17-20.34,27.12-29.64l1-.91C282.31,247.92,301.28,230.57,286.63,214.35Z"/><path class="cls-2" d="M160.42,104a5.45,5.45,0,0,1-3.89-1.61L133.36,79.18a5.5,5.5,0,0,1,7.78-7.78l23.17,23.17a5.5,5.5,0,0,1-3.89,9.39Z"/><path class="cls-2" d="M202.32,104a5.5,5.5,0,0,1-3.89-9.39L221.6,71.4a5.5,5.5,0,1,1,7.78,7.78L206.2,102.35A5.44,5.44,0,0,1,202.32,104Z"/><path class="cls-2" d="M182,97.31a5.5,5.5,0,0,1-5.5-5.5V59a5.5,5.5,0,1,1,11,0V91.81A5.5,5.5,0,0,1,182,97.31Z"/></g></g></svg>