<?xml version="1.0" encoding="utf-8"?>
<!-- Generator: Adobe Illustrator 26.0.3, SVG Export Plug-In . SVG Version: 6.00 Build 0)  -->
<svg version="1.1" id="Layer_1" xmlns="http://www.w3.org/2000/svg" xmlns:xlink="http://www.w3.org/1999/xlink" x="0px" y="0px"
	 viewBox="0 0 100 69.17" style="enable-background:new 0 0 100 69.17;" xml:space="preserve">
<style type="text/css">
	.st0{fill:#3C3C3B;}
	.st1{fill:url(#SVGID_1_);}
	.st2{clip-path:url(#SVGID_00000133510721915061151840000009610458402545032879_);fill:#1D1D1B;}
	.st3{fill:#1D1D1B;}
	.st4{fill:url(#SVGID_00000037677941036201093610000011669869049235895212_);}
	.st5{clip-path:url(#SVGID_00000034055326545698896530000012060422845884690840_);fill:#1D1D1B;}
	.st6{fill:url(#SVGID_00000001658704069938068010000004842533406942016938_);}
	.st7{clip-path:url(#SVGID_00000012439722477948642060000000386188296834000820_);fill:#1D1D1B;}
	.st8{fill:url(#SVGID_00000166634788113269209480000008347350425295485629_);}
	.st9{clip-path:url(#SVGID_00000000931256986807716350000013014367292376951208_);fill:#1D1D1B;}
	.st10{fill:url(#SVGID_00000030455392153828130160000012759562257374833560_);}
	.st11{clip-path:url(#SVGID_00000163057207159365964370000000008670002463040427_);fill:#1D1D1B;}
</style>
<g>
	<path class="st0" d="M50.77,18.93c0.07,0,0.14,0,0.21,0v0H50.77z"/>
	<g>
		<linearGradient id="SVGID_1_" gradientUnits="userSpaceOnUse" x1="39.7967" y1="13.3944" x2="53.1465" y2="3.2271">
			<stop  offset="0.1246" style="stop-color:#388CE7"/>
			<stop  offset="0.8617" style="stop-color:#3BDEA8"/>
		</linearGradient>
		<path class="st1" d="M49.54,9.45l2.01,2.35c0.16,0.19,0.13,0.48-0.08,0.63l-2.63,1.94c-0.22,0.16-0.54,0.1-0.68-0.13l-1.77-2.9
			c-0.04-0.06-0.12-0.06-0.16,0l-1.77,2.9c-0.14,0.23-0.46,0.29-0.68,0.13l-2.63-1.94c-0.21-0.15-0.24-0.44-0.08-0.63l2.01-2.35
			c0.04-0.05,0.02-0.12-0.04-0.14L40.3,8.28c-0.24-0.09-0.36-0.35-0.26-0.58l1.23-2.8c0.1-0.24,0.4-0.34,0.64-0.22l2.14,1.09
			c0.06,0.03,0.14-0.01,0.14-0.08V2.33c0-0.24,0.21-0.44,0.46-0.44h3.34c0.25,0,0.46,0.2,0.46,0.44V5.7c0,0.07,0.07,0.11,0.14,0.08
			l2.14-1.09c0.24-0.12,0.54-0.02,0.64,0.22l1.23,2.8c0.1,0.23-0.02,0.49-0.26,0.58l-2.76,1.03C49.52,9.34,49.5,9.41,49.54,9.45z"/>
	</g>
	<path class="st0" d="M50.98,27.64c-0.07,0-0.14,0-0.21,0c-0.07,0-0.15,0-0.22,0H50.98z"/>
	<g>
		<path class="st0" d="M37.03,37c0,0.03,0,0.07,0,0.1h0L37.03,37L37.03,37z"/>
		<g>
			<g>
				<defs>
					<line id="SVGID_00000109010544398227792820000001655491418870104202_" x1="31.47" y1="6.38" x2="5.57" y2="6.38"/>
				</defs>
				<use xlink:href="#SVGID_00000109010544398227792820000001655491418870104202_"  style="overflow:visible;fill:#1D1D1B;"/>
				<clipPath id="SVGID_00000132794547640296455150000002451790174173904038_">
					<use xlink:href="#SVGID_00000109010544398227792820000001655491418870104202_"  style="overflow:visible;"/>
				</clipPath>
			</g>
			<path class="st3" d="M55.13,23.29c0,2.34-1.84,4.25-4.15,4.36h-6.07c-4.35,0-7.87,3.52-7.87,7.87L37.02,37v0.1l-0.15,23.38
				c0,3.74-3.03,6.77-6.77,6.77h-9.14c-3.79,0-6.87-3.08-6.87-6.87V10.81H5.57c-2.24,0-4.07-1.98-4.07-4.42
				c0-2.44,1.82-4.42,4.07-4.42h25.9c2.24,0,4.07,1.98,4.07,4.42c0,2.45-1.82,4.42-4.07,4.42h-8.3v45.48c0,0.62,0.25,1.19,0.66,1.59
				c0.41,0.41,0.97,0.66,1.59,0.66c1.32,0,2.39-1.06,2.4-2.38l0.13-20.36c0-9.31,7.55-16.86,16.86-16.86h5.97c0.07,0,0.14,0,0.21,0
				C53.29,19.05,55.13,20.95,55.13,23.29z"/>
		</g>
		<path class="st0" d="M73.54,41.47c0.02,0,0.04,0.01,0.06,0.01C73.58,41.48,73.56,41.48,73.54,41.47z"/>
		<path class="st0" d="M74.19,41.59c-0.14-0.03-0.27-0.05-0.41-0.08c-0.03,0-0.05-0.01-0.08-0.01c-0.03-0.01-0.06-0.01-0.1-0.01
			C73.8,41.51,74,41.54,74.19,41.59z"/>
		<path class="st3" d="M73.34,41.44c-0.06,0-0.13-0.01-0.19-0.02c-0.06,0-0.12-0.01-0.18-0.01c0.19,0.02,0.39,0.04,0.58,0.06
			C73.47,41.46,73.4,41.45,73.34,41.44z M72.66,41.4c0.1,0,0.2,0.01,0.3,0.01c-0.03,0-0.06,0-0.09-0.01
			C72.8,41.4,72.73,41.4,72.66,41.4z M94.21,58.59h-4.63v-9.37c-0.01-0.4-0.04-0.8-0.09-1.19c-0.9-7.97-7.22-14.31-15.19-15.22
			c-0.33-0.04-0.66-0.06-0.99-0.08c-0.02,0-0.04,0-0.06,0c-0.29-0.01-0.59-0.02-0.89-0.02h-0.11c-0.15,0-0.29,0-0.44,0.01
			c-0.11,0-0.22,0.01-0.33,0.01c-0.39,0.01-0.77,0.05-1.15,0.09c-3.12,0.36-5.99,1.54-8.37,3.34c-0.99,0.74-1.9,1.58-2.71,2.52
			c-0.31,0.35-0.6,0.72-0.87,1.09c-0.22,0.3-0.44,0.62-0.65,0.94c-0.75,1.17-1.31,2.4-1.71,3.68c-0.01,0.02-0.02,0.04-0.02,0.06
			c-0.67,2.14-0.91,4.41-0.87,6.71v0.05c0,0.15,0.01,0.3,0.01,0.45c0.05,1.47-0.02,3.05-0.02,4.52c0,1.32-1,2.29-2.32,2.29
			c-1.22,0-2.22-0.99-2.22-2.21V37.01c0-0.79-0.22-1.53-0.59-2.17c-0.75-1.28-2.13-2.14-3.72-2.14H46.1c-1.59,0-2.98,0.86-3.72,2.14
			c-0.37,0.64-0.59,1.38-0.59,2.17v23.47c0,0.69,0.1,2.22,1.01,3.69c0.07,0.11,0.14,0.21,0.21,0.31c0.38,0.52,0.83,0.99,1.35,1.37
			c0.07,0.05,0.13,0.1,0.2,0.15c0.34,0.24,0.71,0.44,1.1,0.61c0.08,0.04,0.16,0.07,0.24,0.1c0.08,0.03,0.16,0.06,0.24,0.09
			c0.24,0.08,0.47,0.14,0.7,0.19c0.08,0.02,0.16,0.04,0.24,0.05c0.06,0.01,0.12,0.02,0.19,0.03c0.03,0,0.05,0.01,0.08,0.01
			c0.62,0.09,1.14,0.08,1.45,0.06h6.39c0.82,0,1.63-0.11,2.38-0.33c1.71-0.57,3.1-1.84,3.83-3.47c2.35,1.93,5.2,3.25,8.34,3.73
			c0.23,0.03,0.47,0.06,0.71,0.09c0.1,0.01,0.21,0.02,0.31,0.03c0.1,0.01,0.19,0.02,0.29,0.03c0.12,0.01,0.25,0.01,0.38,0.02
			c0.1,0.01,0.21,0.01,0.31,0.01c0.18,0.01,0.36,0.01,0.55,0.01h0.11c3.15,0,8.54-0.09,8.54-0.09h13.29
			c2.37-0.01,4.29-1.93,4.29-4.31C98.5,60.52,96.58,58.6,94.21,58.59z M72.37,58.59c-3.42,0-6.37-1.99-7.75-4.87
			c-0.12-0.25-0.23-0.5-0.33-0.76c-0.34-0.93-0.52-1.92-0.52-2.96c0-0.14,0-0.27,0.01-0.41c0-0.04,0-0.09,0.01-0.13
			c0-0.05,0-0.11,0.01-0.16c0-0.05,0.01-0.09,0.01-0.13c0-0.03,0-0.07,0.01-0.1c0.01-0.12,0.03-0.24,0.05-0.36
			c0-0.01,0-0.02,0.01-0.04c0.01-0.11,0.03-0.22,0.05-0.33c0.04-0.19,0.08-0.38,0.13-0.56c0.07-0.25,0.14-0.49,0.23-0.72
			c0.04-0.12,0.09-0.24,0.14-0.35c0.05-0.12,0.1-0.23,0.16-0.35c0.05-0.11,0.11-0.22,0.16-0.33c0.06-0.11,0.12-0.22,0.18-0.33
			c0.82-1.4,2.02-2.56,3.46-3.32c0.55-0.29,1.14-0.52,1.75-0.69c0.12-0.03,0.25-0.06,0.37-0.09c0.11-0.02,0.22-0.05,0.34-0.06
			c0.02-0.01,0.05-0.01,0.07-0.01c0.11-0.02,0.23-0.04,0.35-0.05c0.13-0.02,0.26-0.03,0.39-0.04c0.33-0.03,0.67-0.03,1-0.02
			c0.1,0,0.2,0.01,0.3,0.01c0.19,0.02,0.39,0.04,0.58,0.06c-0.07-0.01-0.14-0.02-0.21-0.03c0.12,0.01,0.24,0.03,0.36,0.05
			c0.03,0,0.05,0.01,0.08,0.01c0.96,0.16,1.86,0.47,2.69,0.92c2.68,1.45,4.5,4.3,4.5,7.56c0,0.11,0,0.23-0.01,0.34
			c0,0.09,0,0.18-0.01,0.27c0,0.03,0,0.05,0,0.08c0,0.04,0,0.08-0.01,0.11c0,0.05,0,0.1-0.01,0.15c-0.01,0.11-0.02,0.21-0.04,0.32
			c0,0.02,0,0.04-0.01,0.06c-0.01,0.1-0.03,0.2-0.05,0.3c-0.11,0.6-0.29,1.17-0.52,1.71c-0.09,0.22-0.19,0.42-0.3,0.63
			c-0.06,0.11-0.12,0.22-0.18,0.33c-0.06,0.11-0.13,0.21-0.19,0.32c-0.07,0.11-0.14,0.21-0.21,0.31c-0.07,0.1-0.15,0.2-0.22,0.3
			c-0.08,0.1-0.16,0.19-0.23,0.29c-0.16,0.19-0.33,0.38-0.5,0.55c-0.17,0.17-0.36,0.34-0.55,0.5c-0.19,0.16-0.39,0.31-0.6,0.46
			c-0.1,0.07-0.2,0.14-0.31,0.21c-0.11,0.07-0.22,0.13-0.32,0.2c-0.11,0.06-0.22,0.12-0.33,0.18c-0.11,0.05-0.22,0.11-0.33,0.16
			c-0.23,0.11-0.46,0.21-0.7,0.29c-0.23,0.08-0.46,0.16-0.69,0.22c-0.2,0.05-0.4,0.1-0.6,0.14c-0.11,0.02-0.22,0.04-0.33,0.05
			c-0.01,0-0.02,0.01-0.04,0.01c-0.12,0.02-0.24,0.03-0.36,0.05c-0.03,0-0.07,0.01-0.1,0.01c-0.05,0-0.09,0.01-0.13,0.01
			c-0.03,0-0.06,0-0.09,0c-0.09,0.01-0.17,0.01-0.26,0.01C72.6,58.58,72.48,58.59,72.37,58.59z"/>
	</g>
</g>
</svg>
