<?xml version="1.0" encoding="utf-8"?>
<!-- Generator: Adobe Illustrator 26.0.3, SVG Export Plug-In . SVG Version: 6.00 Build 0)  -->
<svg version="1.1" id="Layer_1" xmlns="http://www.w3.org/2000/svg" xmlns:xlink="http://www.w3.org/1999/xlink" x="0px" y="0px"
	 viewBox="0 0 255.36 171.06" style="enable-background:new 0 0 255.36 171.06;" xml:space="preserve">
<style type="text/css">
	.st0{fill:#3C3C3B;}
	.st1{fill:url(#SVGID_1_);}
	.st2{clip-path:url(#SVGID_00000144307247569129679050000012074115087070446744_);fill:#1D1D1B;}
	.st3{fill:#1D1D1B;}
	.st4{fill:url(#SVGID_00000028282881681154665650000011307589385854046854_);}
	.st5{clip-path:url(#SVGID_00000085228729556697023080000017683659129295937955_);fill:#1D1D1B;}
	.st6{fill:url(#SVGID_00000157293423768860230800000013943095896380536237_);}
	.st7{clip-path:url(#SVGID_00000167368797077084222450000001170494683725444263_);fill:#1D1D1B;}
</style>
<g>
	<path class="st0" d="M129.68,45.19c0.18,0,0.35,0,0.53,0.01v-0.01H129.68z"/>
	<g>
		<linearGradient id="SVGID_1_" gradientUnits="userSpaceOnUse" x1="101.3837" y1="30.9201" x2="135.7904" y2="4.7157">
			<stop  offset="0.1246" style="stop-color:#388CE7"/>
			<stop  offset="0.8617" style="stop-color:#3BDEA8"/>
		</linearGradient>
		<path class="st1" d="M126.5,20.76l5.18,6.07c0.42,0.5,0.34,1.23-0.19,1.62l-6.78,5c-0.57,0.42-1.38,0.26-1.75-0.33l-4.57-7.46
			c-0.09-0.15-0.32-0.15-0.41,0l-4.57,7.46c-0.36,0.59-1.18,0.74-1.75,0.33l-6.78-5c-0.53-0.39-0.62-1.13-0.19-1.62l5.18-6.07
			c0.1-0.12,0.05-0.3-0.1-0.36l-7.1-2.65c-0.62-0.23-0.92-0.91-0.66-1.5l3.16-7.21c0.27-0.62,1.03-0.88,1.65-0.56l5.53,2.82
			c0.16,0.08,0.35-0.03,0.35-0.2V2.4c0-0.63,0.53-1.14,1.19-1.14h8.6c0.66,0,1.19,0.51,1.19,1.14v8.7c0,0.17,0.19,0.28,0.35,0.2
			l5.53-2.82c0.62-0.31,1.38-0.05,1.65,0.56l3.16,7.21c0.26,0.59-0.04,1.27-0.66,1.5l-7.1,2.65
			C126.45,20.46,126.4,20.64,126.5,20.76z"/>
	</g>
	<path class="st0" d="M130.21,67.64c-0.18,0.01-0.35,0.01-0.53,0.01c-0.19,0-0.39,0-0.58-0.01H130.21z"/>
	<g>
		<path class="st0" d="M94.26,91.76c0,0.08-0.01,0.18-0.01,0.26h-0.01v-0.26H94.26z"/>
		<g>
			<g>
				<defs>
					<line id="SVGID_00000098914870091493135010000016344951111757419176_" x1="79.92" y1="12.85" x2="13.16" y2="12.85"/>
				</defs>
				<use xlink:href="#SVGID_00000098914870091493135010000016344951111757419176_"  style="overflow:visible;fill:#1D1D1B;"/>
				<clipPath id="SVGID_00000130612219771448337880000001718873821997051052_">
					<use xlink:href="#SVGID_00000098914870091493135010000016344951111757419176_"  style="overflow:visible;"/>
				</clipPath>
			</g>
			<path class="st3" d="M140.9,56.42c0,6.03-4.75,10.94-10.7,11.23h-15.65c-11.2,0-20.29,9.08-20.29,20.28l-0.02,3.84v0.26
				l-0.39,60.25c0,9.63-7.81,17.45-17.46,17.45H52.83c-9.77,0-17.71-7.93-17.71-17.71V24.25H13.16c-5.78,0-10.48-5.1-10.48-11.4
				c0-6.29,4.7-11.39,10.48-11.39h66.76c5.78,0,10.48,5.1,10.48,11.39c0,6.3-4.7,11.4-10.48,11.4h-21.4v117.21
				c0,1.61,0.65,3.06,1.7,4.11c1.05,1.05,2.5,1.7,4.11,1.7c3.4,0,6.15-2.74,6.17-6.14l0.34-52.48c0-24,19.45-43.45,43.45-43.45
				h15.38c0.18,0,0.35,0,0.53,0.01C136.16,45.49,140.9,50.4,140.9,56.42z"/>
		</g>
		<path class="st0" d="M188.36,103.29c0.05,0.01,0.11,0.01,0.16,0.02C188.46,103.3,188.41,103.3,188.36,103.29z"/>
		<path class="st0" d="M190.02,103.58c-0.35-0.08-0.7-0.14-1.06-0.2c-0.07-0.01-0.13-0.02-0.2-0.03c-0.08-0.01-0.16-0.02-0.25-0.03
			C189.02,103.38,189.52,103.47,190.02,103.58z"/>
		<path class="st3" d="M187.83,103.21c-0.17-0.01-0.33-0.02-0.5-0.05c-0.15-0.01-0.32-0.02-0.47-0.04c0.5,0.05,1,0.09,1.5,0.17
			C188.18,103.26,188,103.23,187.83,103.21z M186.09,103.09c0.26,0.01,0.51,0.02,0.77,0.04c-0.08-0.01-0.15-0.01-0.24-0.02
			C186.44,103.09,186.27,103.09,186.09,103.09z M241.63,147.4h-11.92v-24.14c-0.04-1.03-0.11-2.05-0.22-3.06
			c-2.31-20.55-18.62-36.88-39.14-39.24c-0.84-0.09-1.7-0.17-2.56-0.21c-0.05-0.01-0.11-0.01-0.17-0.01
			c-0.76-0.04-1.52-0.06-2.29-0.06h-0.3c-0.38,0-0.76,0.01-1.13,0.02c-0.3,0.01-0.58,0.02-0.86,0.04c-1,0.04-1.99,0.12-2.97,0.22
			c-8.04,0.92-15.43,3.98-21.58,8.62c-2.55,1.9-4.9,4.08-6.99,6.49c-0.79,0.91-1.53,1.85-2.24,2.82c-0.58,0.78-1.13,1.59-1.66,2.42
			c-1.94,3.02-3.38,6.2-4.41,9.48c-0.04,0.05-0.05,0.11-0.06,0.15c-1.74,5.52-2.35,11.36-2.24,17.28v0.12
			c0.01,0.39,0.02,0.77,0.04,1.16c0.13,3.8-0.05,7.85-0.05,11.65c0,3.41-2.57,5.89-5.99,5.89c-3.15,0.01-5.71-2.55-5.71-5.7V91.78
			c0-2.04-0.55-3.95-1.51-5.6c-1.92-3.31-5.5-5.51-9.6-5.51h-0.42c-4.1,0-7.67,2.21-9.6,5.51c-0.96,1.64-1.51,3.55-1.51,5.6v60.5
			c0,1.77,0.25,5.73,2.61,9.51c0.18,0.27,0.35,0.54,0.54,0.8c0.97,1.35,2.14,2.55,3.47,3.54c0.18,0.14,0.34,0.26,0.52,0.38
			c0.89,0.61,1.83,1.15,2.83,1.58c0.21,0.09,0.41,0.18,0.63,0.26c0.21,0.07,0.41,0.15,0.61,0.22c0.61,0.2,1.22,0.37,1.79,0.5
			c0.2,0.06,0.41,0.09,0.63,0.13c0.17,0.04,0.32,0.06,0.48,0.08c0.07,0.01,0.13,0.02,0.2,0.04c1.61,0.24,2.93,0.2,3.73,0.15h16.47
			c2.12,0,4.19-0.3,6.14-0.86c4.41-1.46,7.99-4.75,9.87-8.95c6.04,4.97,13.41,8.38,21.5,9.62c0.6,0.08,1.22,0.17,1.82,0.24
			c0.26,0.02,0.53,0.06,0.79,0.08c0.25,0.02,0.5,0.05,0.76,0.07c0.32,0.02,0.64,0.04,0.97,0.05c0.26,0.02,0.53,0.04,0.8,0.04
			c0.46,0.02,0.93,0.04,1.4,0.04h0.3c8.11,0,22.02-0.22,22.02-0.22h34.25c6.1-0.02,11.05-4.98,11.05-11.1
			C252.68,152.38,247.73,147.42,241.63,147.4z M185.33,147.4c-8.81,0-16.41-5.12-19.99-12.56c-0.31-0.64-0.59-1.3-0.84-1.97
			c-0.87-2.38-1.35-4.95-1.35-7.63c0-0.35,0.01-0.7,0.02-1.05c0.01-0.11,0.01-0.22,0.02-0.34c0-0.13,0.01-0.27,0.02-0.4
			c0.01-0.12,0.02-0.22,0.04-0.34c0-0.08,0.01-0.18,0.02-0.26c0.04-0.31,0.07-0.61,0.12-0.92c0-0.04,0.01-0.06,0.02-0.09
			c0.04-0.28,0.08-0.57,0.14-0.85c0.09-0.48,0.2-0.97,0.33-1.45c0.18-0.64,0.37-1.26,0.59-1.87c0.11-0.31,0.22-0.61,0.35-0.91
			c0.13-0.31,0.26-0.6,0.4-0.9c0.14-0.28,0.28-0.58,0.42-0.86c0.15-0.28,0.31-0.57,0.47-0.85c2.11-3.61,5.22-6.59,8.92-8.55
			c1.42-0.74,2.94-1.35,4.52-1.77c0.32-0.08,0.64-0.17,0.96-0.24c0.28-0.06,0.58-0.12,0.87-0.17c0.06-0.02,0.13-0.04,0.19-0.04
			c0.3-0.05,0.6-0.09,0.9-0.13c0.33-0.05,0.67-0.08,1-0.11c0.86-0.07,1.72-0.08,2.57-0.06c0.26,0.01,0.51,0.02,0.77,0.04
			c0.5,0.05,1,0.09,1.5,0.17c-0.18-0.04-0.35-0.06-0.53-0.08c0.32,0.04,0.63,0.08,0.93,0.13c0.07,0.01,0.14,0.02,0.2,0.04
			c2.47,0.41,4.8,1.22,6.93,2.37c6.92,3.74,11.6,11.07,11.6,19.49c0,0.3,0,0.59-0.02,0.89c0,0.22-0.01,0.46-0.04,0.7
			c0,0.07-0.01,0.13-0.01,0.2c-0.01,0.09-0.01,0.2-0.04,0.3c0,0.13-0.01,0.25-0.04,0.38c-0.02,0.27-0.06,0.54-0.11,0.81
			c0,0.06-0.01,0.11-0.02,0.17c-0.04,0.26-0.08,0.52-0.13,0.78c-0.3,1.53-0.74,3.01-1.35,4.41c-0.24,0.55-0.5,1.09-0.77,1.62
			c-0.15,0.28-0.31,0.57-0.47,0.85c-0.17,0.27-0.33,0.54-0.5,0.81c-0.18,0.27-0.35,0.54-0.54,0.8c-0.19,0.26-0.38,0.52-0.57,0.78
			c-0.2,0.25-0.4,0.5-0.6,0.74c-0.4,0.5-0.84,0.97-1.3,1.42c-0.45,0.45-0.93,0.89-1.42,1.3c-0.5,0.41-1,0.8-1.53,1.18
			c-0.26,0.18-0.52,0.35-0.79,0.53c-0.27,0.18-0.55,0.34-0.83,0.51c-0.28,0.17-0.57,0.32-0.85,0.47c-0.28,0.14-0.58,0.28-0.86,0.42
			c-0.59,0.28-1.19,0.53-1.79,0.76c-0.59,0.21-1.18,0.4-1.78,0.57c-0.51,0.14-1.03,0.26-1.55,0.35c-0.28,0.06-0.57,0.11-0.85,0.14
			c-0.04,0.01-0.06,0.02-0.09,0.02c-0.31,0.05-0.61,0.08-0.92,0.12c-0.08,0.01-0.18,0.02-0.26,0.02c-0.12,0.01-0.22,0.02-0.34,0.04
			c-0.08,0.01-0.15,0.01-0.24,0.01c-0.22,0.02-0.45,0.04-0.66,0.04C185.94,147.38,185.63,147.4,185.33,147.4z"/>
	</g>
</g>
</svg>
