<svg width="92" height="47" viewBox="0 0 92 47" fill="none" xmlns="http://www.w3.org/2000/svg">
<path d="M11.0604 46.5697V11.6553H0.510651V3.57555H31.1834V11.6553H19.9456V46.5697H11.0604Z" fill="#181818"/>
<path d="M47.119 25.391C46.2859 25.1052 45.4097 24.9679 44.5297 24.9851C41.378 24.9851 38.6814 27.3532 38.6814 32.0261V46.5697H30.5435V17.4266H38.6814V19.4447C39.514 18.5829 40.5136 17.9026 41.6183 17.4459C42.7229 16.9892 43.9091 16.766 45.103 16.7899C45.7746 16.7725 46.4464 16.8111 47.1116 16.9053L47.119 25.391Z" fill="#181818"/>
<path d="M58.2939 46.5697H50.156V17.4266H58.2939V46.5697Z" fill="#181818"/>
<path d="M91.6596 17.4266V46.5697H83.5216V44.492C82.2602 46.1638 79.1086 47.2027 76.4712 47.2027C68.5737 47.2027 62.2482 40.3367 62.2482 32.0112C62.2482 23.5851 68.729 16.775 76.4675 16.775C79.0568 16.775 82.2565 18.0447 83.5179 19.4298V17.4266H91.6596ZM83.8619 32.0112C83.8619 27.9154 81.0543 24.9702 77.2702 24.9702C73.5452 24.9702 70.5046 27.9154 70.5046 32.0112C70.5046 36.1665 73.5452 39.0521 77.2702 39.0521C81.0543 39.0857 83.8619 36.1814 83.8619 32.0112Z" fill="#181818"/>
<path d="M58.0424 8.73619L60.776 12.158L57.0325 15.2L54.3248 11.0559L51.7059 15.4309L47.9624 12.5341L50.5813 9.31704L46.9525 7.8947L48.7096 3.69098L51.7613 5.22875L51.6763 0.909596L56.4555 0.734596L56.2853 5.40002L59.3666 3.08406L61.4973 7.37343L58.0424 8.73619Z" fill="url(#paint0_linear_522_101)"/>
<defs>
<linearGradient id="paint0_linear_522_101" x1="44.8515" y1="19.1915" x2="61.3219" y2="0.674199" gradientUnits="userSpaceOnUse">
<stop offset="0.12" stop-color="#388CE7"/>
<stop offset="0.91" stop-color="#3BDEA8"/>
</linearGradient>
</defs>
</svg>
