<svg width="19" height="16" viewBox="0 0 19 16" fill="none" xmlns="http://www.w3.org/2000/svg">
<path fill-rule="evenodd" clip-rule="evenodd" d="M0.730769 0C0.536957 0 0.351083 0.0936507 0.214037 0.26035C0.0769915 0.427049 0 0.653141 0 0.888889C0 1.12464 0.0769915 1.35073 0.214037 1.51743C0.351083 1.68413 0.536957 1.77778 0.730769 1.77778H18.2692C18.463 1.77778 18.6489 1.68413 18.786 1.51743C18.923 1.35073 19 1.12464 19 0.888889C19 0.653141 18.923 0.427049 18.786 0.26035C18.6489 0.0936507 18.463 0 18.2692 0H0.730769ZM0 8C0 7.76425 0.0769915 7.53816 0.214037 7.37146C0.351083 7.20476 0.536957 7.11111 0.730769 7.11111H18.2692C18.463 7.11111 18.6489 7.20476 18.786 7.37146C18.923 7.53816 19 7.76425 19 8C19 8.23575 18.923 8.46184 18.786 8.62854C18.6489 8.79524 18.463 8.88889 18.2692 8.88889H0.730769C0.536957 8.88889 0.351083 8.79524 0.214037 8.62854C0.0769915 8.46184 0 8.23575 0 8ZM0 15.1111C0 14.8754 0.0769915 14.6493 0.214037 14.4826C0.351083 14.3159 0.536957 14.2222 0.730769 14.2222H18.2692C18.463 14.2222 18.6489 14.3159 18.786 14.4826C18.923 14.6493 19 14.8754 19 15.1111C19 15.3469 18.923 15.573 18.786 15.7397C18.6489 15.9064 18.463 16 18.2692 16H0.730769C0.536957 16 0.351083 15.9064 0.214037 15.7397C0.0769915 15.573 0 15.3469 0 15.1111Z" fill="black"/>
</svg>
