<svg width="409" height="396" viewBox="0 0 409 396" fill="none" xmlns="http://www.w3.org/2000/svg">
<g filter="url(#filter0_d_506_118)">
<path d="M248.449 265.033L240.103 335.88C239.995 336.79 239.495 337.592 238.714 338.11C237.932 338.628 236.932 338.82 235.933 338.644L148.267 323.123C147.742 323.029 147.234 322.837 146.777 322.558C146.32 322.278 145.923 321.919 145.612 321.501C145.301 321.084 145.083 320.619 144.971 320.135C144.86 319.652 144.858 319.161 144.965 318.694L162.78 240.625C162.909 240.057 162.877 239.456 162.686 238.877C162.495 238.299 162.153 237.762 161.69 237.317C161.227 236.872 160.659 236.533 160.039 236.331C159.42 236.13 158.768 236.073 158.146 236.166L69.6981 249.333C69.1806 249.414 68.641 249.389 68.1149 249.263C67.5889 249.136 67.0885 248.909 66.6469 248.597C66.2053 248.286 65.8326 247.897 65.5535 247.456C65.2744 247.014 65.0953 246.531 65.0279 246.039L53.8409 166.536C53.7753 166.068 53.8113 165.6 53.9467 165.161C54.0821 164.722 54.3143 164.32 54.6293 163.98C54.9444 163.639 55.336 163.366 55.7811 163.177C56.2261 162.989 56.7155 162.888 57.2203 162.881L130.284 162.013C130.88 162.005 131.453 161.867 131.957 161.609C132.461 161.351 132.88 160.981 133.182 160.529C133.484 160.077 133.659 159.556 133.693 159.009C133.727 158.462 133.619 157.903 133.378 157.38L105.69 97.4083C105.486 96.9655 105.378 96.4972 105.37 96.0309C105.363 95.5646 105.457 95.1097 105.647 94.693C105.836 94.2764 106.118 93.9063 106.476 93.6048C106.833 93.3032 107.258 93.0762 107.727 92.937L184.131 70.3121C184.612 70.1694 185.128 70.1223 185.648 70.1738C186.167 70.2253 186.679 70.3742 187.151 70.6113C187.624 70.8484 188.046 71.1687 188.393 71.5523C188.74 71.9359 189.004 72.3746 189.168 72.8412L207.506 124.777C207.712 125.362 208.075 125.901 208.559 126.342C209.044 126.782 209.632 127.109 210.269 127.29C210.905 127.471 211.567 127.501 212.191 127.377C212.815 127.252 213.379 126.978 213.829 126.58L266.234 80.4983C266.921 79.8839 267.868 79.5668 268.867 79.6159C269.867 79.6649 270.84 80.0763 271.574 80.7604L335.853 140.857C336.23 141.212 336.531 141.628 336.736 142.081C336.942 142.533 337.048 143.012 337.048 143.487C337.048 143.962 336.943 144.424 336.738 144.844C336.533 145.264 336.233 145.633 335.857 145.929L276.789 191.711C276.265 192.117 275.89 192.663 275.706 193.284C275.523 193.905 275.538 194.577 275.751 195.222C275.964 195.867 276.365 196.459 276.908 196.93C277.452 197.4 278.116 197.731 278.823 197.883L342.486 211.402C343.035 211.516 343.56 211.737 344.026 212.051C344.491 212.365 344.885 212.763 345.179 213.218C345.474 213.674 345.662 214.174 345.731 214.686C345.799 215.197 345.747 215.706 345.577 216.178L318.266 289.496C318.099 289.94 317.831 290.338 317.478 290.666C317.126 290.994 316.697 291.245 316.218 291.403C315.74 291.56 315.222 291.621 314.699 291.582C314.175 291.542 313.657 291.403 313.176 291.173L253.731 262.636C253.186 262.375 252.593 262.231 252 262.216C251.407 262.2 250.831 262.313 250.317 262.547C249.803 262.78 249.366 263.126 249.042 263.558C248.717 263.99 248.514 264.495 248.449 265.033V265.033Z" fill="white" fill-opacity="0.15"/>
</g>
<defs>
<filter id="filter0_d_506_118" x="48.8091" y="61.1536" width="311.951" height="288.554" filterUnits="userSpaceOnUse" color-interpolation-filters="sRGB">
<feFlood flood-opacity="0" result="BackgroundImageFix"/>
<feColorMatrix in="SourceAlpha" type="matrix" values="0 0 0 0 0 0 0 0 0 0 0 0 0 0 0 0 0 0 127 0" result="hardAlpha"/>
<feOffset dx="5" dy="1"/>
<feGaussianBlur stdDeviation="5"/>
<feComposite in2="hardAlpha" operator="out"/>
<feColorMatrix type="matrix" values="0 0 0 0 0 0 0 0 0 0 0 0 0 0 0 0 0 0 0.2 0"/>
<feBlend mode="normal" in2="BackgroundImageFix" result="effect1_dropShadow_506_118"/>
<feBlend mode="normal" in="SourceGraphic" in2="effect1_dropShadow_506_118" result="shape"/>
</filter>
</defs>
</svg>
